<svg data-v-9d63f6ec="" version="1.0" xmlns="http://www.w3.org/2000/svg" xmlns:xlink="http://www.w3.org/1999/xlink" width="100%" height="100%" viewBox="0 0 340.000000 250.000000" preserveAspectRatio="xMidYMid meet" color-interpolation-filters="sRGB" class="el-tooltip" style="margin: auto;">
  <rect data-v-9d63f6ec="" x="0" y="0" width="100%" height="100%" fill="#fff" fill-opacity="1"></rect>
  <rect data-v-9d63f6ec="" x="0" y="0" width="100%" height="100%" fill="url(#watermark)" fill-opacity="1" class="watermarklayer"></rect>
  <g data-v-9d63f6ec="" fill="#1c3523" class="icon-text-wrapper icon-svg-group iconsvg" transform="translate(115.02000045776367,66.95796966552734)">
    <g class="iconsvg-imagesvg" transform="translate(36.424997329711914,0)">
      <rect fill="#1c3523" fill-opacity="0" stroke-width="2" x="0" y="0" width="37.11" height="60"></rect> <svg x="0" y="0" width="37.11" height="60" class="imagesvg-svg"><svg xmlns="http://www.w3.org/2000/svg" viewBox="0 0 12.37 20">
          <g>
            <g>
              <g>
                <path fill="#e4f6c4" d="M9.89 14.28l-2.47-1.42-2.47 1.42v.01l-2.48-1.43L0 14.29l4.95 2.85 4.94-2.85v-.01z"></path>
                <path fill="#1c3523" d="M0 14.29v2.85l2.47 1.43L4.95 20v-2.86L0 14.29zM9.89 14.28l-2.47-1.43V9.99l2.47 1.43v2.86z"></path>
                <path fill="#e4f6c4" d="M9.89 0L7.42 1.43l2.47 1.43 2.48-1.43L9.89 0z"></path>
                <path fill="#1c3523" d="M7.42 1.43v5.71l2.47 1.43V2.86L7.42 1.43z"></path>
                <path fill="#e4f6c4" d="M7.42 7.13L4.95 8.56 2.47 9.99l2.48 1.43 2.47-1.43 2.47-1.43-2.47-1.43z"></path>
                <path d="M9.89 2.86v5.7l-4.94 2.86v2.86l4.94-2.86v2.85l-4.94 2.87V20l7.42-4.29V1.43zm0 5.72z" fill="#f33d2e"></path>
                <path fill="#e4f6c4" d="M2.48 1.42L0 2.85l2.48 1.43 2.47-1.43-2.47-1.43z"></path>
                <path fill="#1c3523" d="M2.48 9.99V4.28L0 2.85v8.57l4.95 2.85v-2.86L2.48 9.99z"></path>
                <path fill="#f33d2e" d="M2.48 4.28V10l2.47-1.43V2.85L2.48 4.28z"></path>
              </g>
            </g>
          </g>
        </svg></svg>
      <!---->
    </g>
    <g transform="translate(0,67)">
      <g class="tp-name iconsvg-namesvg" transform="translate(0,0)">
        <g>
          <path transform="translate(-2.421875,27.5)" d="M10.66-26.29L15.94-17.71L21.02-26.27L21.02-26.27Q21.46-27.03 21.88-27.27L21.88-27.27L21.88-27.27Q22.30-27.50 23.18-27.50L23.18-27.50L28.03-27.50L28.03-27.50Q29.08-27.50 29.08-26.64L29.08-26.64L29.08-26.64Q29.08-26.43 28.83-26.04L28.83-26.04L20.68-13.16L20.68-13.16Q20.31-12.58 20.31-11.89L20.31-11.89L20.31 0.21L20.31 0.21Q20.31 1.84 18.69 1.84L18.69 1.84L12.87 1.84L12.87 1.84Q11.25 1.84 11.25 0.21L11.25 0.21L11.25-11.89L11.25-11.89Q11.25-12.60 10.88-13.16L10.88-13.16L2.68-26.04L2.68-26.04Q2.42-26.43 2.42-26.66L2.42-26.66L2.42-26.66Q2.42-27.50 3.48-27.50L3.48-27.50L8.48-27.50L8.48-27.50Q9.36-27.50 9.79-27.27L9.79-27.27L9.79-27.27Q10.20-27.03 10.66-26.29L10.66-26.29ZM55.35 1.33L55.35 1.33L35.72 1.33L35.72 1.33Q34.10 1.33 34.10-0.29L34.10-0.29L34.10-12.07L34.10-12.07Q34.10-13.69 35.72-13.69L35.72-13.69L46.80-13.69L46.80-13.69Q48.44-13.69 48.44-15.27L48.44-15.27L48.44-16.27L48.44-16.27Q48.44-17.85 46.80-17.85L46.80-17.85L35.72-17.85L35.72-17.85Q34.10-17.85 34.10-19.32L34.10-19.32L34.10-19.84L34.10-19.84Q34.10-21.31 35.72-21.31L35.72-21.31L55.35-21.31L55.35-21.31Q56.97-21.31 56.97-19.69L56.97-19.69L56.97-0.29L56.97-0.29Q56.97 1.33 55.35 1.33ZM46.80-10.49L46.80-10.49L44.00-10.49L44.00-10.49Q42.36-10.49 42.36-8.87L42.36-8.87L42.36-3.50L42.36-3.50Q42.36-1.88 44.00-1.88L44.00-1.88L46.80-1.88L46.80-1.88Q48.44-1.88 48.44-3.50L48.44-3.50L48.44-8.87L48.44-8.87Q48.44-10.49 46.80-10.49ZM74.12-16.23L74.12-16.23L74.12-3.75L74.12-3.75Q74.12-2.11 75.74-2.11L75.74-2.11L82.62-2.11L82.62-2.11Q84.24-2.11 84.24-0.64L84.24-0.64L84.24-0.12L84.24-0.12Q84.24 1.35 82.62 1.35L82.62 1.35L66.93 1.35L66.93 1.35Q65.31 1.35 65.31-0.27L65.31-0.27L65.31-16.23L65.31-16.23Q65.31-17.85 63.77-17.85L63.77-17.85L62.95-17.85L62.95-17.85Q61.41-17.85 61.41-19.32L61.41-19.32L61.41-19.84L61.41-19.84Q61.41-21.31 62.95-21.31L62.95-21.31L63.77-21.31L63.77-21.31Q65.16-21.31 65.31-22.64L65.31-22.64L65.31-22.64Q65.47-23.96 66.93-23.96L66.93-23.96L72.48-23.96L72.48-23.96Q73.96-23.96 74.12-22.64L74.12-22.64L74.12-22.64Q74.28-21.31 75.74-21.31L75.74-21.31L82.66-21.31L82.66-21.31Q84.28-21.31 84.28-19.84L84.28-19.84L84.28-19.32L84.28-19.32Q84.28-17.85 82.66-17.85L82.66-17.85L75.74-17.85L75.74-17.85Q74.12-17.85 74.12-16.23ZM98.07-6.17L98.07-6.17L98.07-3.73L98.07-3.73Q98.07-2.11 99.69-2.11L99.69-2.11L110.74-2.11L110.74-2.11Q112.38-2.11 112.38-0.64L112.38-0.64L112.38-0.12L112.38-0.12Q112.38 1.35 110.74 1.35L110.74 1.35L91.15 1.35L91.15 1.35Q89.53 1.35 89.53-0.27L89.53-0.27L89.53-19.69L89.53-19.69Q89.53-21.31 91.15-21.31L91.15-21.31L110.68-21.29L110.68-21.29Q111.64-21.29 111.99-20.94L111.99-20.94L111.99-20.94Q112.38-20.53 112.38-19.69L112.38-19.69L112.38-9.43L112.38-9.43Q112.38-7.79 110.76-7.79L110.76-7.79L99.69-7.79L99.69-7.79Q98.07-7.79 98.07-6.17ZM99.69-10.98L99.69-10.98L102.50-10.98L102.50-10.98Q104.12-10.98 104.12-12.62L104.12-12.62L104.12-16.48L104.12-16.48Q104.12-18.13 102.50-18.13L102.50-18.13L99.69-18.13L99.69-18.13Q98.07-18.13 98.07-16.48L98.07-16.48L98.07-12.62L98.07-12.62Q98.07-10.98 99.69-10.98Z"></path>
        </g>
        <!---->
        <!---->
        <!---->
        <!---->
        <!---->
        <!---->
        <!---->
      </g>
      <g class="tp-slogan iconsvg-slogansvg" fill="#f33d2e" transform="translate(34.795000076293945,34.50406265258789)">
        <!---->
        <!---->
        <!---->
        <g>
          <rect stroke-width="2" x="0" y="0" width="40.369998931884766" height="14.579999923706055"></rect>
          <!---->
          <!---->
          <g transform="translate(5,3)">
            <g fill="#fff">
              <path transform="translate(-0.1875,8.578125)" d="M7.83-8.58L4.59-3.47L4.59 0L3.42 0L3.42-3.47L0.19-8.58L1.55-8.58L3.98-4.45L6.47-8.58L7.83-8.58ZM14.53 0L13.69-2.48L10.22-2.48L9.33 0L8.16 0L11.39-8.58L12.70-8.58L15.80 0L14.53 0ZM11.95-7.31L10.59-3.52L13.27-3.52L12-7.31L11.95-7.31ZM19.03-7.59L16.13-7.59L16.13-8.58L23.06-8.58L23.06-7.59L20.16-7.59L20.16 0L19.03 0L19.03-7.59ZM25.41-1.03L30.56-1.03L30.56 0L24.23 0L24.23-8.58L30.47-8.58L30.47-7.59L25.41-7.59L25.41-4.92L30.09-4.92L30.09-3.89L25.41-3.89L25.41-1.03Z"></path>
            </g>
          </g>
        </g>
      </g>
    </g>
  </g>
</svg>
