<svg x="0" y="0" width="100" height="100" class="imagesvg-svg"><svg xmlns="http://www.w3.org/2000/svg" viewBox="0 0 12.37 20">
    <g>
      <g>
        <g>
          <path fill="#e4f6c4" d="M9.89 14.28l-2.47-1.42-2.47 1.42v.01l-2.48-1.43L0 14.29l4.95 2.85 4.94-2.85v-.01z"></path>
          <path fill="#1c3523" d="M0 14.29v2.85l2.47 1.43L4.95 20v-2.86L0 14.29zM9.89 14.28l-2.47-1.43V9.99l2.47 1.43v2.86z"></path>
          <path fill="#e4f6c4" d="M9.89 0L7.42 1.43l2.47 1.43 2.48-1.43L9.89 0z"></path>
          <path fill="#1c3523" d="M7.42 1.43v5.71l2.47 1.43V2.86L7.42 1.43z"></path>
          <path fill="#e4f6c4" d="M7.42 7.13L4.95 8.56 2.47 9.99l2.48 1.43 2.47-1.43 2.47-1.43-2.47-1.43z"></path>
          <path d="M9.89 2.86v5.7l-4.94 2.86v2.86l4.94-2.86v2.85l-4.94 2.87V20l7.42-4.29V1.43zm0 5.72z" fill="#c31432"></path>
          <path fill="#e4f6c4" d="M2.48 1.42L0 2.85l2.48 1.43 2.47-1.43-2.47-1.43z"></path>
          <path fill="#1c3523" d="M2.48 9.99V4.28L0 2.85v8.57l4.95 2.85v-2.86L2.48 9.99z"></path>
          <path fill="#c31432" d="M2.48 4.28V10l2.47-1.43V2.85L2.48 4.28z"></path>
        </g>
      </g>
    </g>
  </svg></svg>
